<svg width="132" height="44" viewBox="0 0 132 44" fill="none" xmlns="http://www.w3.org/2000/svg">
<path fill-rule="evenodd" clip-rule="evenodd" d="M0.999999 0C0.447714 0 0 0.447715 0 1V1.99078V43C0 43.5523 0.447715 44 1 44H43C43.5523 44 44 43.5523 44 43V0.999999C44 0.447714 43.5523 0 43 0H0.999999ZM10.3353 13.9785C6.24218 18.5606 3.97966 24.4895 3.97966 30.6336V39.0204C3.97966 39.5726 4.42737 40.0204 4.97966 40.0204H39.0203C39.5726 40.0204 40.0203 39.5726 40.0203 39.0204V4.98156C40.0203 4.42928 39.5726 3.98156 39.0203 3.98156H30.4554C23.3359 3.98156 16.5541 7.01701 11.8111 12.3265L10.3353 13.9785ZM35.4426 36.8768C35.9949 36.8768 36.4426 36.4291 36.4426 35.8768V18.6672C36.4426 18.1149 35.9949 17.6672 35.4426 17.6672H20.0484C19.7832 17.6672 19.5288 17.7726 19.3413 17.9601L15.1247 22.1767C14.9371 22.3643 14.8318 22.6186 14.8318 22.8838V35.8768C14.8318 36.4291 15.2795 36.8768 15.8318 36.8768H18.6342C19.1865 36.8768 19.6342 36.4291 19.6342 35.8768V23.4696C19.6342 22.9173 20.0819 22.4696 20.6342 22.4696H22.236C22.7883 22.4696 23.236 22.9173 23.236 23.4696V35.8768C23.236 36.4291 23.6837 36.8768 24.236 36.8768H27.0384C27.5907 36.8768 28.0384 36.4291 28.0384 35.8768V23.4696C28.0384 22.9173 28.4861 22.4696 29.0384 22.4696H30.6402C31.1925 22.4696 31.6402 22.9173 31.6402 23.4696V35.8768C31.6402 36.4291 32.0879 36.8768 32.6402 36.8768H35.4426Z" fill="white"/>
<path d="M57.6016 9.625H59.9453V17.5C59.9453 18.224 59.7839 18.8646 59.4609 19.4219C59.1432 19.974 58.6927 20.401 58.1094 20.7031C57.526 21.0052 56.8672 21.1562 56.1328 21.1562C54.9297 21.1562 53.9922 20.8516 53.3203 20.2422C52.6484 19.6276 52.3125 18.7604 52.3125 17.6406H54.6719C54.6719 18.1979 54.7891 18.6094 55.0234 18.875C55.2578 19.1406 55.6276 19.2734 56.1328 19.2734C56.5807 19.2734 56.9375 19.1198 57.2031 18.8125C57.4688 18.5052 57.6016 18.0677 57.6016 17.5V9.625Z" fill="white"/>
<path d="M66.5547 14.6641C66.2474 14.6224 65.9766 14.6016 65.7422 14.6016C64.888 14.6016 64.3281 14.8906 64.0625 15.4688V21H61.8047V12.5469H63.9375L64 13.5547C64.4531 12.7786 65.0807 12.3906 65.8828 12.3906C66.1328 12.3906 66.3672 12.4245 66.5859 12.4922L66.5547 14.6641Z" fill="white"/>
<path d="M66.4062 19.8906C66.4062 19.5312 66.526 19.2396 66.7656 19.0156C67.0104 18.7917 67.3151 18.6797 67.6797 18.6797C68.0495 18.6797 68.3542 18.7917 68.5938 19.0156C68.8385 19.2396 68.9609 19.5312 68.9609 19.8906C68.9609 20.2448 68.8411 20.5339 68.6016 20.7578C68.362 20.9766 68.0547 21.0859 67.6797 21.0859C67.3099 21.0859 67.0052 20.9766 66.7656 20.7578C66.526 20.5339 66.4062 20.2448 66.4062 19.8906Z" fill="white"/>
<path d="M78.1406 9.625L81.0625 17.875L83.9688 9.625H87.0469V21H84.6953V17.8906L84.9297 12.5234L81.8594 21H80.25L77.1875 12.5312L77.4219 17.8906V21H75.0781V9.625H78.1406Z" fill="white"/>
<path d="M92.8359 21.1562C91.5964 21.1562 90.5859 20.776 89.8047 20.0156C89.0286 19.2552 88.6406 18.2422 88.6406 16.9766V16.7578C88.6406 15.9089 88.8047 15.151 89.1328 14.4844C89.4609 13.8125 89.9245 13.2969 90.5234 12.9375C91.1276 12.5729 91.8151 12.3906 92.5859 12.3906C93.7422 12.3906 94.651 12.7552 95.3125 13.4844C95.9792 14.2135 96.3125 15.2474 96.3125 16.5859V17.5078H90.9297C91.0026 18.0599 91.2214 18.5026 91.5859 18.8359C91.9557 19.1693 92.4219 19.3359 92.9844 19.3359C93.8542 19.3359 94.5339 19.0208 95.0234 18.3906L96.1328 19.6328C95.7943 20.112 95.3359 20.487 94.7578 20.7578C94.1797 21.0234 93.5391 21.1562 92.8359 21.1562ZM92.5781 14.2188C92.1302 14.2188 91.7656 14.3698 91.4844 14.6719C91.2083 14.974 91.0312 15.4062 90.9531 15.9688H94.0938V15.7891C94.0833 15.2891 93.9479 14.9036 93.6875 14.6328C93.4271 14.3568 93.0573 14.2188 92.5781 14.2188Z" fill="white"/>
<path d="M99.6797 12.5469L99.75 13.5234C100.354 12.7682 101.164 12.3906 102.18 12.3906C103.076 12.3906 103.742 12.6536 104.18 13.1797C104.617 13.7057 104.841 14.4922 104.852 15.5391V21H102.594V15.5938C102.594 15.1146 102.49 14.7682 102.281 14.5547C102.073 14.3359 101.727 14.2266 101.242 14.2266C100.607 14.2266 100.13 14.4974 99.8125 15.0391V21H97.5547V12.5469H99.6797Z" fill="white"/>
<path d="M106.219 16.7109C106.219 15.3932 106.513 14.3438 107.102 13.5625C107.695 12.7812 108.505 12.3906 109.531 12.3906C110.354 12.3906 111.034 12.6979 111.57 13.3125V9H113.836V21H111.797L111.688 20.1016C111.125 20.8047 110.401 21.1562 109.516 21.1562C108.521 21.1562 107.721 20.7656 107.117 19.9844C106.518 19.1979 106.219 18.1068 106.219 16.7109ZM108.477 16.875C108.477 17.6667 108.615 18.2734 108.891 18.6953C109.167 19.1172 109.568 19.3281 110.094 19.3281C110.792 19.3281 111.284 19.0339 111.57 18.4453V15.1094C111.289 14.5208 110.802 14.2266 110.109 14.2266C109.021 14.2266 108.477 15.1094 108.477 16.875Z" fill="white"/>
<path d="M119.477 21.1562C118.237 21.1562 117.227 20.776 116.445 20.0156C115.669 19.2552 115.281 18.2422 115.281 16.9766V16.7578C115.281 15.9089 115.445 15.151 115.773 14.4844C116.102 13.8125 116.565 13.2969 117.164 12.9375C117.768 12.5729 118.456 12.3906 119.227 12.3906C120.383 12.3906 121.292 12.7552 121.953 13.4844C122.62 14.2135 122.953 15.2474 122.953 16.5859V17.5078H117.57C117.643 18.0599 117.862 18.5026 118.227 18.8359C118.596 19.1693 119.062 19.3359 119.625 19.3359C120.495 19.3359 121.174 19.0208 121.664 18.3906L122.773 19.6328C122.435 20.112 121.977 20.487 121.398 20.7578C120.82 21.0234 120.18 21.1562 119.477 21.1562ZM119.219 14.2188C118.771 14.2188 118.406 14.3698 118.125 14.6719C117.849 14.974 117.672 15.4062 117.594 15.9688H120.734V15.7891C120.724 15.2891 120.589 14.9036 120.328 14.6328C120.068 14.3568 119.698 14.2188 119.219 14.2188Z" fill="white"/>
<path d="M128.82 18.6641C128.82 18.388 128.682 18.1719 128.406 18.0156C128.135 17.8542 127.698 17.7109 127.094 17.5859C125.083 17.1641 124.078 16.3099 124.078 15.0234C124.078 14.2734 124.388 13.6484 125.008 13.1484C125.633 12.6432 126.448 12.3906 127.453 12.3906C128.526 12.3906 129.383 12.6432 130.023 13.1484C130.669 13.6536 130.992 14.3099 130.992 15.1172H128.734C128.734 14.7943 128.63 14.5286 128.422 14.3203C128.214 14.1068 127.888 14 127.445 14C127.065 14 126.771 14.0859 126.562 14.2578C126.354 14.4297 126.25 14.6484 126.25 14.9141C126.25 15.1641 126.367 15.3672 126.602 15.5234C126.841 15.6745 127.242 15.8073 127.805 15.9219C128.367 16.0312 128.841 16.1562 129.227 16.2969C130.419 16.7344 131.016 17.4922 131.016 18.5703C131.016 19.3411 130.685 19.9661 130.023 20.4453C129.362 20.9193 128.508 21.1562 127.461 21.1562C126.753 21.1562 126.122 21.0312 125.57 20.7812C125.023 20.526 124.594 20.1797 124.281 19.7422C123.969 19.2995 123.812 18.8229 123.812 18.3125H125.953C125.974 18.7135 126.122 19.0208 126.398 19.2344C126.674 19.4479 127.044 19.5547 127.508 19.5547C127.94 19.5547 128.266 19.474 128.484 19.3125C128.708 19.1458 128.82 18.9297 128.82 18.6641Z" fill="white"/>
<path d="M53.168 35V25.7578H55.7515C56.509 25.7578 57.1882 25.9313 57.7891 26.2783C58.39 26.6211 58.8576 27.1141 59.1919 27.7573C59.5304 28.4006 59.6997 29.1326 59.6997 29.9536V30.8042C59.6997 31.6294 59.5326 32.3615 59.1982 33.0005C58.8639 33.6395 58.3921 34.1325 57.7827 34.4795C57.1776 34.8265 56.4814 35 55.6943 35H53.168ZM53.9487 26.4243V34.3398H55.7007C56.674 34.3398 57.4548 34.0182 58.043 33.375C58.6312 32.7275 58.9253 31.8537 58.9253 30.7534V29.9409C58.9253 28.8787 58.6354 28.0282 58.0557 27.3892C57.4759 26.7502 56.7121 26.4285 55.7642 26.4243H53.9487Z" fill="white"/>
<path d="M64.1685 35.127C63.5845 35.127 63.0555 34.9831 62.5815 34.6953C62.1118 34.4076 61.7458 34.0076 61.4834 33.4956C61.221 32.9793 61.0898 32.4017 61.0898 31.7627V31.4897C61.0898 30.8296 61.2168 30.235 61.4707 29.7061C61.7288 29.1771 62.0864 28.7624 62.5435 28.4619C63.0005 28.1572 63.4956 28.0049 64.0288 28.0049C64.8625 28.0049 65.5226 28.2905 66.0093 28.8618C66.5002 29.4289 66.7456 30.2054 66.7456 31.1914V31.6167H61.8452V31.7627C61.8452 32.5413 62.0674 33.1909 62.5117 33.7114C62.9603 34.2277 63.5231 34.4858 64.2002 34.4858C64.6064 34.4858 64.964 34.4118 65.2729 34.2637C65.5861 34.1156 65.8696 33.8786 66.1235 33.5527L66.5996 33.9146C66.041 34.7228 65.2306 35.127 64.1685 35.127ZM64.0288 28.6523C63.4575 28.6523 62.9751 28.8618 62.5815 29.2808C62.1922 29.6997 61.9552 30.2625 61.8706 30.9692H65.9902V30.8867C65.9691 30.2266 65.7808 29.6891 65.4253 29.2744C65.0698 28.8597 64.6043 28.6523 64.0288 28.6523Z" fill="white"/>
<path d="M70.2749 33.9526L72.3633 28.1318H73.144L70.5796 35H69.9639L67.3867 28.1318H68.1675L70.2749 33.9526Z" fill="white"/>
<path d="M76.9653 35.127C76.3813 35.127 75.8524 34.9831 75.3784 34.6953C74.9087 34.4076 74.5426 34.0076 74.2803 33.4956C74.0179 32.9793 73.8867 32.4017 73.8867 31.7627V31.4897C73.8867 30.8296 74.0137 30.235 74.2676 29.7061C74.5257 29.1771 74.8833 28.7624 75.3403 28.4619C75.7974 28.1572 76.2925 28.0049 76.8257 28.0049C77.6593 28.0049 78.3195 28.2905 78.8062 28.8618C79.297 29.4289 79.5425 30.2054 79.5425 31.1914V31.6167H74.6421V31.7627C74.6421 32.5413 74.8643 33.1909 75.3086 33.7114C75.7572 34.2277 76.32 34.4858 76.9971 34.4858C77.4033 34.4858 77.7609 34.4118 78.0698 34.2637C78.383 34.1156 78.6665 33.8786 78.9204 33.5527L79.3965 33.9146C78.8379 34.7228 78.0275 35.127 76.9653 35.127ZM76.8257 28.6523C76.2544 28.6523 75.772 28.8618 75.3784 29.2808C74.9891 29.6997 74.7521 30.2625 74.6675 30.9692H78.7871V30.8867C78.766 30.2266 78.5776 29.6891 78.2222 29.2744C77.8667 28.8597 77.4012 28.6523 76.8257 28.6523Z" fill="white"/>
<path d="M81.8721 35H81.1104V25.25H81.8721V35Z" fill="white"/>
<path d="M83.5225 31.4644C83.5225 30.8042 83.6494 30.2096 83.9033 29.6807C84.1615 29.1517 84.5233 28.7412 84.9888 28.4492C85.4585 28.153 85.9896 28.0049 86.582 28.0049C87.4961 28.0049 88.2367 28.3265 88.8037 28.9697C89.3708 29.6087 89.6543 30.4572 89.6543 31.5151V31.6738C89.6543 32.3382 89.5252 32.937 89.2671 33.4702C89.0132 33.9992 88.6535 34.4076 88.188 34.6953C87.7225 34.9831 87.1914 35.127 86.5947 35.127C85.6849 35.127 84.9443 34.8075 84.373 34.1685C83.806 33.5252 83.5225 32.6746 83.5225 31.6167V31.4644ZM84.2842 31.6738C84.2842 32.4948 84.4958 33.1698 84.9189 33.6987C85.3464 34.2235 85.9049 34.4858 86.5947 34.4858C87.2803 34.4858 87.8346 34.2235 88.2578 33.6987C88.6852 33.1698 88.8989 32.4736 88.8989 31.6104V31.4644C88.8989 30.9396 88.8016 30.4593 88.6069 30.0234C88.4123 29.5876 88.1393 29.2511 87.7881 29.0142C87.4368 28.7729 87.0348 28.6523 86.582 28.6523C85.9049 28.6523 85.3527 28.9189 84.9253 29.4521C84.4979 29.9811 84.2842 30.6751 84.2842 31.5342V31.6738Z" fill="white"/>
<path d="M96.751 31.6357C96.751 32.7064 96.514 33.557 96.04 34.1875C95.5661 34.8138 94.9313 35.127 94.1357 35.127C93.1963 35.127 92.4769 34.7969 91.9775 34.1367V37.6406H91.2222V28.1318H91.9268L91.9648 29.103C92.46 28.3709 93.1772 28.0049 94.1167 28.0049C94.9377 28.0049 95.5809 28.3159 96.0464 28.938C96.5161 29.5601 96.751 30.4233 96.751 31.5278V31.6357ZM95.9893 31.5024C95.9893 30.6265 95.8094 29.9346 95.4497 29.4268C95.09 28.9189 94.5885 28.665 93.9453 28.665C93.4798 28.665 93.0799 28.7772 92.7456 29.0015C92.4113 29.2257 92.1553 29.5516 91.9775 29.979V33.2734C92.1595 33.667 92.4198 33.9674 92.7583 34.1748C93.0968 34.3822 93.4967 34.4858 93.958 34.4858C94.597 34.4858 95.0942 34.2319 95.4497 33.7241C95.8094 33.2121 95.9893 32.4715 95.9893 31.5024Z" fill="white"/>
<path d="M101.099 35.127C100.515 35.127 99.9862 34.9831 99.5122 34.6953C99.0425 34.4076 98.6764 34.0076 98.4141 33.4956C98.1517 32.9793 98.0205 32.4017 98.0205 31.7627V31.4897C98.0205 30.8296 98.1475 30.235 98.4014 29.7061C98.6595 29.1771 99.0171 28.7624 99.4741 28.4619C99.9312 28.1572 100.426 28.0049 100.959 28.0049C101.793 28.0049 102.453 28.2905 102.94 28.8618C103.431 29.4289 103.676 30.2054 103.676 31.1914V31.6167H98.7759V31.7627C98.7759 32.5413 98.998 33.1909 99.4424 33.7114C99.891 34.2277 100.454 34.4858 101.131 34.4858C101.537 34.4858 101.895 34.4118 102.204 34.2637C102.517 34.1156 102.8 33.8786 103.054 33.5527L103.53 33.9146C102.972 34.7228 102.161 35.127 101.099 35.127ZM100.959 28.6523C100.388 28.6523 99.9058 28.8618 99.5122 29.2808C99.1229 29.6997 98.8859 30.2625 98.8013 30.9692H102.921V30.8867C102.9 30.2266 102.711 29.6891 102.356 29.2744C102 28.8597 101.535 28.6523 100.959 28.6523Z" fill="white"/>
<path d="M108.329 28.7793C108.168 28.7497 107.997 28.7349 107.815 28.7349C107.341 28.7349 106.939 28.8682 106.609 29.1348C106.283 29.3971 106.05 29.7801 105.911 30.2837V35H105.155V28.1318H105.898L105.911 29.2236C106.313 28.4111 106.958 28.0049 107.847 28.0049C108.058 28.0049 108.225 28.0324 108.348 28.0874L108.329 28.7793Z" fill="white"/>
</svg>
